<?xml version="1.0" encoding="UTF-8"?>
<svg id="Layer_1" data-name="Layer 1" xmlns="http://www.w3.org/2000/svg" viewBox="0 0 1685.7 601.7">
  <defs>
    <style>
      .cls-1, .cls-2 {
        fill: #fff;
      }

      .cls-3 {
        letter-spacing: .09em;
      }

      .cls-3, .cls-4, .cls-5, .cls-6, .cls-7, .cls-8 {
        font-family: TitilliumWeb-SemiBoldItalic, 'Titillium Web';
        font-weight: 600;
      }

      .cls-3, .cls-4, .cls-6, .cls-7, .cls-8 {
        font-size: 101.46px;
      }

      .cls-4 {
        letter-spacing: .09em;
      }

      .cls-9 {
        font-size: 81.16px;
        letter-spacing: 0em;
      }

      .cls-9, .cls-10 {
        font-family: TitilliumWeb-Italic, 'Titillium Web';
      }

      .cls-5, .cls-10 {
        letter-spacing: .1em;
      }

      .cls-5, .cls-10, .cls-11, .cls-12 {
        font-size: 144.94px;
      }

      .cls-6 {
        letter-spacing: .1em;
      }

      .cls-7 {
        letter-spacing: .1em;
      }

      .cls-8 {
        letter-spacing: .1em;
      }

      .cls-2 {
        font-style: italic;
      }

      .cls-11 {
        letter-spacing: .1em;
      }

      .cls-11, .cls-12 {
        font-family: TitilliumWeb-BoldItalic, 'Titillium Web';
        font-weight: 700;
      }

      .cls-12 {
        letter-spacing: .1em;
      }
    </style>
  </defs>
  <text class="cls-2" transform="translate(790.36 122.11) scale(1.15 1)"><tspan class="cls-11" x="0" y="0">L</tspan><tspan class="cls-8" x="75.66" y="0">o</tspan><tspan class="cls-6" x="136.02" y="0">c</tspan><tspan class="cls-7" x="186.95" y="0">ational</tspan><tspan class="cls-5" x="543.56" y="0"> </tspan><tspan class="cls-12" x="0" y="144.94">E</tspan><tspan class="cls-7" x="86.53" y="144.94">n</tspan><tspan class="cls-4" x="148.01" y="144.94">c</tspan><tspan class="cls-8" x="198.84" y="144.94">oding</tspan><tspan class="cls-5" x="474.89" y="144.94"> </tspan><tspan class="cls-9" x="521.27" y="144.94">with</tspan><tspan class="cls-10" x="663.63" y="144.94"> </tspan><tspan class="cls-12" x="0" y="289.87">N</tspan><tspan class="cls-7" x="108.85" y="289.87">eu</tspan><tspan class="cls-6" x="228.16" y="289.87">r</tspan><tspan class="cls-8" x="270.87" y="289.87">omorphic</tspan><tspan class="cls-5" x="732.18" y="289.87"> </tspan><tspan class="cls-12" x="0" y="434.81">S</tspan><tspan class="cls-3" x="86.24" y="434.81">y</tspan><tspan class="cls-8" x="142.14" y="434.81">stems</tspan></text>
  <path class="cls-1" d="m292.92,558.39c-66.84-11.44-125.7-39.61-179-80.25-43.86-33.44-79.59-74.35-110.49-119.72-4.84-7.11-4.38-14.12.28-21.13,22.45-33.74,47.36-65.37,77.49-92.72,41.42-37.6,87.67-67.34,140.1-87.19,29.87-11.31,60.65-18.82,92.42-22.47,9.9-1.14,19.83-1.57,29.73-2.58,2.97-.3,4.61-1.33,5.79-4.04,9.97-22.85,20.03-45.66,30.08-68.47.91-2.06,1.86-4.11,2.89-6.11,1.29-2.52,3.2-4.28,6.19-3.04,2.83,1.17,3.39,3.59,2.67,6.44-2.06,8.1-4.15,16.19-6.1,24.32-3.79,15.78-7.51,31.58-11.24,47.37-.18.75-.23,1.54-.38,2.55,3.44,1.45,7.03,1.51,10.41,1.67,22.21,1.05,43.99,4.9,65.52,10.18,4.98,1.22,7-.23,8.61-4.6,9.47-25.64,19.07-51.23,28.67-76.82,5.88-15.66,11.83-31.29,17.76-46.92.96-2.52,2.13-5.06,5.5-3.85,3.01,1.08,3.43,3.53,2.48,6.35-.1.3-.08.64-.14.95-4.69,23.45-9.4,46.9-14.08,70.35-3.96,19.84-7.84,39.69-11.89,59.5-.83,4.04-.23,6.08,4.26,7.67,20.18,7.16,39.66,16,58.5,26.22,1.95,1.06,3.95,2.03,6.4,3.28,3.89-8.49,7.62-16.63,11.36-24.77,3.62-7.89,7.25-15.79,10.88-23.68,1.23-2.68,2.48-5.77,6.25-4.48,4.06,1.4,2.99,4.96,2.22,7.81-3.45,12.89-7.09,25.72-10.68,38.57-.99,3.56-1.73,7.24-3.17,10.62-1.79,4.2-.19,6.27,3.3,8.5,56.37,35.99,101.91,82.82,138.39,138.69,4.98,7.63,5.4,15,.12,22.87-33.9,50.45-74.82,94.07-124.62,129.19-47.94,33.81-100.1,57.92-157.97,68.76-33,6.18-66.32,7.43-99.83,5.37-12.85-.79-25.54-2.48-38.66-4.39m-176.13-119.17c64.23,59.39,139.32,94.08,227.15,99.39,22.35,1.35,44.67-.43,66.77-3.96,33.38-5.33,65.18-15.72,95.67-30.36,69.98-33.59,123.04-85.65,164.76-150.19,3.18-4.91,2.77-9.74-.46-14.41-2.83-4.1-5.76-8.14-8.67-12.19-25.86-36.02-55.28-68.65-91.03-95.21-2.77-2.06-5.35-4.56-8.6-5.48-1.53,1.04-1.72,2.33-2.08,3.57-7.93,27.15-15.92,54.29-23.78,81.46-3.02,10.46-6.7,20.78-4.95,32.08,1.97,12.7.46,25.41-1.69,37.91-5.97,34.6-21.42,64.73-45.8,89.78-46.05,47.32-102.2,63.13-166.28,49.55-41.29-8.75-75.29-30.41-100.63-64.4-32.47-43.56-43.7-92.54-29.69-145,17.09-63.99,58.68-104.97,123.77-120.77,4.33-1.05,7.58-3.11,9.95-6.91,4.44-7.1,8.55-14.38,12.14-21.95.52-1.1,1.42-2.2.59-3.87-10.75.68-21.55,1.94-32.23,3.81-47.39,8.29-90.88,26.4-131.19,52.47-50.45,32.63-90.13,75.84-123.54,125.25-3.21,4.75-3.16,9.63.02,14.44,20.18,30.58,42.39,59.49,69.8,85m409.91-137.71c4.36-15.2,9.36-30.23,12.52-45.78-5.71,9.99-10.83,20.17-16.01,30.32-1.83,3.59-3.8,7.13-6.55,10.1-3.53,3.81-7.4,3.75-10.6-.33-2.28-2.9-4.17-6.1-6.13-9.24-3.12-4.99-6.16-10.04-9.3-15.16-2.52,1.85-3.45,4.14-4.6,6.21-7.59,13.63-15.02,27.36-22.65,40.97-7.31,13.05-14.27,26.31-22.66,38.73-1.69,2.51-3.6,4.8-7.09,3.46-3.54-1.35-3.32-4.2-2.71-7.26,7.13-35.73,14.24-71.47,21.32-107.21,4.31-21.73,8.61-43.46,12.73-65.22.38-2.01,2.24-5.1-1.25-6.25-3.75-1.24-3.55,2.55-4.34,4.4-5.14,12.14-9.78,24.49-15.78,36.27-3.85,7.56-4.99,8.05-12.67,4.76-1.18-.51-2.35-1.06-3.53-1.57-24.1-10.42-48.85-17.99-75.5-17.42-5.12.11-7.25-2.83-6.84-8.23.74-9.77,3.92-19.12,4.9-28.89-4.28,8.45-9.1,16.61-13.26,25.07-4.6,9.38-10.98,15.56-21.76,16.45-2.05.17-4.05,1.01-6.06,1.58-39.46,11.11-70.02,34.14-90.89,69.37-20.04,33.83-25.54,70.27-17.33,108.76,7.26,34.04,23.63,63.01,50.17,85.39,39.78,33.54,86.13,45.55,137.02,35.79,58.73-11.27,98.55-46.39,120.04-101.94,7.66-19.8,10.88-40.6,8.62-62-.52-4.96-.17-9.84,1.58-14.71,3.04-8.46,5.55-17.12,8.57-26.41m-37.32-116.93c-3.15-.9-5.83-3.33-9.95-3.07-8.18,40.06-16.36,80.07-24.53,120.07,1.12-.11,1.47-.42,1.71-.8,8.67-13.57,15.36-28.24,23.4-42.16,6.38-11.05,12.94-11.56,20.45-1.51,2.11,2.83,3.99,5.84,5.94,8.79,1.84,2.79,3.64,5.6,5.43,8.35,1.92-.72,2.4-2.16,3.01-3.41,8.75-18.09,17.38-36.24,26.26-54.27,1.82-3.69.17-5.11-2.61-6.78-15.6-9.36-31.68-17.78-49.1-25.2m-97.42,5.42c14.66,2.82,28.44,8.6,42.99,13.62,3.78-11.56,7.35-22.49,10.92-33.4-.95-.67-1.42-1.16-1.99-1.37-1.36-.48-2.76-.86-4.16-1.23-22.28-5.82-44.97-8.91-67.9-10.54-3.05-.22-4.88.66-5.52,3.88-1.34,6.77-2.75,13.53-4.36,20.24-.71,2.96.12,4.08,3.12,4.39,8.78.9,17.57,1.86,26.9,4.41Z"/>
  <path class="cls-1" d="m324.8,389.15c-23.03-22.12-20.99-57.64,4.8-75.65,15.86-11.08,33.44-11.9,50.73-3.18,16.66,8.4,24.98,22.76,25.54,41.22.63,20.66-8.57,36.23-27.19,44.99-19,8.94-37.19,6.11-53.87-7.38Z"/>
  <path class="cls-1" d="m317.77,418.35c39.51,23.66,90.21,8.19,109.92-33.28,2.92-6.15,7.23-7.95,11.75-4.82,4.14,2.87,3.74,6.67,2,10.71-8.87,20.63-23.87,35.34-44.09,44.57-42.99,19.61-93.2,5.71-118.48-34.62-28.86-46.02-10.11-107.1,40.08-128.37,34.49-14.62,66.86-10.06,96.7,12.53,1.15.87,2.25,1.84,3.23,2.9,2.83,3.06,2.98,6.38.34,9.55-2.58,3.1-5.96,3.93-9.48,1.77-3.01-1.84-5.72-4.17-8.6-6.22-43.09-30.71-106.2-7.6-119.14,43.62-7.71,30.54,6.65,63.54,35.77,81.66Z"/>
  <path class="cls-1" d="m238.35,387.56c2.77-.46,5.16-.69,7.5.17,4.21,1.55,6.88,5.67,6.49,10.19-.41,4.68-2.99,7.88-7.48,8.91-4.48,1.03-8.65.13-11.37-4.16-2.53-3.99-2.17-8.94,1.05-12.43.95-1.03,2.28-1.71,3.82-2.68Z"/>
  <path class="cls-1" d="m319.59,249.12c-4.72,4.6-8.42,5.54-12.64,3.26-4.01-2.16-6.19-5.53-5.77-10.18.43-4.66,3.85-8.21,8.6-9.05,3.8-.67,6.99.75,9.31,3.68,2.97,3.74,3.37,7.82.49,12.29Z"/>
  <path class="cls-1" d="m485.49,370.97c5.67,3.82,7.21,7.47,5.46,12.19-1.82,4.92-5.87,7.51-10.77,6.9-5.73-.72-9.92-6.18-8.89-11.62,1.25-6.59,6.87-9.68,14.2-7.47Z"/>
  <path class="cls-1" d="m413.2,242.82c-1.03,6.59-4.04,10.15-8.96,10.6-4.64.42-8.1-1.73-10.13-5.82-2.61-5.24-.25-11.46,4.95-13.66,5.27-2.23,11.21.29,13.39,5.72.35.88.47,1.85.75,3.16Z"/>
  <path class="cls-1" d="m236.33,300.23c6.13-4.3,12.2-3.55,15.78,1.64,3.04,4.41,1.95,10.14-2.59,13.53-3.83,2.87-9.22,2.57-12.78-.69-4.11-3.77-4.34-8.58-.42-14.49Z"/>
  <path class="cls-1" d="m493.49,336.15c-2.8,9.07-11.1,12.26-16.98,6.8-3.23-3-4.25-6.72-2.62-10.96,1.52-3.95,4.3-6.35,8.63-6.57,4.71-.25,7.99,2.07,9.98,6.18.61,1.26.7,2.78.98,4.56Z"/>
  <path class="cls-1" d="m225.33,358.06c-2.82-5.8-2.28-10.34,1.33-13.41,3.74-3.19,9-3.37,12.85-.45,4.68,3.55,5.4,10.1,1.58,14.47-4.29,4.9-10.25,4.79-15.76-.6Z"/>
  <path class="cls-1" d="m265.53,277.66c-4.73-4.94-5.4-10.15-2.17-14.48,2.7-3.61,8.42-4.84,12.62-2.7,4.92,2.5,6.9,8.74,4.34,13.64-2.66,5.09-8.53,6.61-14.79,3.53Z"/>
  <path class="cls-1" d="m382.06,480.88c-4.39-3.07-6.22-6.79-4.86-11.83,1.21-4.48,4.45-6.66,8.68-7.28,4.03-.59,7.16,1.29,9.31,4.73,2.52,4.03,2.25,8.08-.67,11.64-3.18,3.87-7.36,4.95-12.46,2.74Z"/>
  <path class="cls-1" d="m260.69,428.7c5.99-2.96,11.34-1.94,14.44,2.48,2.77,3.95,2.28,9.39-1.16,12.8-3.72,3.69-10.37,3.82-14,.27-4.51-4.41-4.36-10.14.72-15.55Z"/>
  <path class="cls-1" d="m426.38,443.78c6.53.15,9.98,2.32,11.19,6.68,1.29,4.65-.47,9.42-4.37,11.69-3.67,2.14-7.35,2.01-10.84-.34-3.32-2.25-4.95-5.52-4.32-9.49.71-4.49,3.25-7.57,8.33-8.53Z"/>
  <path class="cls-1" d="m363.87,243.46c-7.33,5.67-16.37.13-16.5-6.7-.08-4.62,1.42-8.26,5.79-10.09,4.2-1.76,8.21-1.09,11.47,2.25,3.11,3.19,3.56,7.97,1.27,12.01-.47.83-1.15,1.53-2.03,2.53Z"/>
  <path class="cls-1" d="m470.73,423.8c-1.94,6.71-6.2,9.49-12.2,8.27-4.83-.98-8.27-5.71-7.73-10.66.59-5.37,5.19-9.32,10.59-9.09,5.71.24,9.07,4.23,9.33,11.48Z"/>
  <path class="cls-1" d="m295.59,466.91c-.82-8.91,2.11-13.09,8.89-13.23,5.41-.11,9.42,2.99,10.43,8.07.84,4.2-1.86,9.08-6.08,11-4.37,1.99-9.21.52-12.23-3.75-.37-.52-.59-1.14-1.02-2.09Z"/>
  <path class="cls-1" d="m341.06,466.63c4.43-3.24,8.7-3.05,12.8-.39,3.67,2.38,4.44,6.18,3.7,10.18-.78,4.2-3.64,6.71-7.73,7.58-4.36.92-7.98-.67-10.34-4.37-2.84-4.46-2.25-8.81,1.57-13Z"/>
</svg>